<?xml version="1.0" standalone="no"?>
<!DOCTYPE svg PUBLIC "-//W3C//DTD SVG 20010904//EN"
 "http://www.w3.org/TR/2001/REC-SVG-20010904/DTD/svg10.dtd">
<svg version="1.0" xmlns="http://www.w3.org/2000/svg"
 width="256.000000pt" height="256.000000pt" viewBox="0 0 256.000000 256.000000"
 preserveAspectRatio="xMidYMid meet">

<g transform="translate(0.000000,256.000000) scale(0.100000,-0.100000)"
fill="#000000" stroke="none">
<path d="M0 1280 l0 -1280 1280 0 1280 0 0 1280 0 1280 -1280 0 -1280 0 0
-1280z m990 1030 l0 -230 290 0 290 0 0 230 c0 223 1 230 20 230 19 0 20 -7
20 -228 l0 -228 113 -11 c133 -14 191 -32 244 -78 61 -52 92 -131 106 -270
l11 -115 228 0 c221 0 228 -1 228 -20 0 -19 -7 -20 -230 -20 l-230 0 0 -290 0
-290 230 0 c223 0 230 -1 230 -20 0 -19 -7 -20 -228 -20 l-228 0 -11 -113
c-14 -133 -32 -191 -78 -244 -52 -61 -131 -92 -270 -106 l-115 -11 0 -228 c0
-221 -1 -228 -20 -228 -19 0 -20 7 -20 230 l0 230 -290 0 -290 0 0 -230 c0
-223 -1 -230 -20 -230 -19 0 -20 7 -20 228 l0 228 -112 11 c-134 14 -192 32
-245 78 -61 52 -92 131 -106 270 l-11 115 -228 0 c-221 0 -228 1 -228 20 0 19
7 20 230 20 l230 0 0 290 0 290 -230 0 c-223 0 -230 1 -230 20 0 19 7 20 228
20 l228 0 11 113 c14 133 32 191 78 244 52 61 131 92 270 106 l115 11 0 228
c0 221 1 228 20 228 19 0 20 -7 20 -230z"/>
<path d="M776 2019 c-120 -18 -188 -73 -222 -177 -18 -53 -19 -97 -19 -562 0
-458 2 -510 18 -563 24 -79 81 -136 162 -162 56 -19 90 -20 565 -20 458 0 510
2 563 18 79 24 136 81 162 162 19 56 20 90 20 565 0 579 -1 586 -78 663 -80
80 -84 81 -632 83 -264 1 -507 -2 -539 -7z m809 -739 l0 -305 -305 0 -305 0
-3 295 c-1 162 0 301 3 308 3 10 69 12 307 10 l303 -3 0 -305z m106 282 c31
-27 31 -30 33 -121 1 -98 3 -101 62 -137 17 -10 16 -13 -17 -27 -32 -13 -38
-21 -44 -56 -4 -23 -4 -58 0 -80 9 -56 -15 -108 -59 -126 -45 -19 -66 -19 -66
0 0 8 8 15 18 15 37 0 50 30 54 128 3 88 5 95 31 118 23 20 25 25 12 30 -28
11 -39 47 -45 144 l-5 95 -32 14 c-41 18 -42 31 -3 31 18 0 42 -11 61 -28z
m-741 -7 c0 -8 -9 -15 -19 -15 -38 0 -51 -27 -51 -106 0 -76 -18 -134 -42
-134 -6 0 -1 -12 13 -26 21 -22 24 -38 29 -117 l5 -92 32 -15 c41 -19 42 -30
2 -30 -20 0 -40 10 -60 29 -27 28 -29 34 -29 110 0 68 -3 84 -20 101 -11 11
-27 20 -35 20 -25 0 -17 20 12 31 39 15 43 24 43 114 0 90 15 119 65 134 44
14 55 13 55 -4z"/>
<path d="M1233 1509 c-29 -8 -62 -40 -89 -85 -11 -18 -13 -18 -38 5 -25 23
-27 24 -43 8 -16 -16 -15 -19 14 -49 26 -28 30 -39 26 -70 -5 -34 -8 -38 -34
-38 -25 0 -29 -4 -29 -29 0 -26 4 -30 32 -33 26 -2 33 -9 40 -33 7 -26 3 -34
-29 -67 -35 -36 -36 -39 -20 -55 16 -17 19 -16 49 14 l31 32 31 -24 c74 -56
170 -50 224 14 10 13 17 10 47 -19 33 -32 36 -33 52 -17 16 16 15 19 -21 56
-37 38 -38 40 -26 75 10 30 16 36 41 36 24 0 29 4 29 25 0 21 -5 25 -29 25
-26 0 -29 4 -34 38 -4 31 0 42 26 70 29 30 30 33 14 49 -16 16 -18 15 -42 -7
-14 -13 -26 -22 -28 -19 -2 2 -14 19 -27 38 -22 32 -89 71 -120 70 -8 0 -29
-5 -47 -10z m112 -74 c14 -13 25 -33 25 -45 0 -19 -6 -20 -90 -20 -84 0 -90 1
-90 20 0 36 44 70 90 70 30 0 47 -6 65 -25z m55 -191 c0 -64 -2 -68 -39 -105
-33 -33 -45 -39 -81 -39 -36 0 -48 6 -81 39 -37 37 -39 41 -39 105 l0 66 120
0 120 0 0 -66z"/>
</g>
</svg>
