<?xml version="1.0" standalone="no"?>
<svg version="1.0" xmlns="http://www.w3.org/2000/svg"
 width="513.000000pt" height="513.000000pt" viewBox="0 0 513.000000 513.000000"
 preserveAspectRatio="xMidYMid meet">
<g transform="translate(0.000000,513.000000) scale(0.100000,-0.100000)"
fill="#ff27a7" stroke="none">
<path d="M2527 5123 c-1 0 -55 -4 -119 -7 -64 -3 -127 -8 -140 -10 -13 -3 -41
-7 -63 -10 -68 -9 -119 -17 -155 -26 -19 -5 -48 -12 -65 -15 -16 -3 -55 -12
-85 -20 -30 -9 -62 -18 -70 -20 -181 -47 -485 -191 -675 -318 -275 -184 -517
-423 -708 -699 -243 -351 -397 -793 -434 -1243 -11 -139 -5 -414 12 -503 1 -9
6 -42 10 -72 15 -119 59 -302 107 -448 l51 -153 37 108 c86 253 189 446 339
640 74 96 233 262 316 330 28 23 60 50 72 60 16 13 24 34 28 73 14 124 79 336
144 465 180 362 465 631 827 781 87 36 225 78 288 88 21 4 41 8 45 10 28 18
325 27 451 14 356 -35 706 -207 967 -474 76 -78 193 -225 193 -243 0 -6 6 -11
14 -11 35 0 53 128 61 445 2 66 3 128 4 137 1 12 19 20 69 31 55 13 427 89
496 103 10 2 21 6 24 8 2 3 -27 43 -66 88 -285 334 -663 594 -1081 743 -69 25
-230 72 -272 80 -13 3 -46 9 -74 15 -82 17 -98 20 -145 26 -25 3 -56 7 -70 10
-40 6 -329 22 -333 17z"/>
<path d="M1784 3140 c-166 -37 -194 -257 -43 -336 126 -65 273 39 257 181 -12
105 -112 178 -214 155z"/>
<path d="M2663 3130 c-84 -34 -127 -131 -97 -221 29 -91 122 -140 214 -113 83
25 140 117 125 204 -8 46 -58 108 -101 126 -37 16 -107 17 -141 4z"/>
<path d="M3560 3121 c-46 -24 -69 -51 -85 -96 -38 -113 46 -235 163 -235 159
0 236 180 128 298 -47 52 -141 67 -206 33z"/>
<path d="M1313 2779 c-56 -10 -86 -27 -234 -130 -115 -81 -165 -127 -292 -272
-50 -57 -191 -252 -247 -342 -88 -140 -173 -322 -224 -476 l-44 -132 55 -91
c130 -215 267 -390 451 -576 73 -74 156 -153 184 -175 28 -22 56 -45 62 -50
58 -54 265 -189 385 -252 277 -147 514 -217 891 -267 106 -14 447 -15 560 -2
73 9 210 34 305 56 28 6 59 13 69 16 29 6 204 64 261 86 650 260 1162 758
1432 1393 72 169 147 432 168 590 2 11 5 38 9 60 23 167 29 345 13 346 -7 1
-142 3 -301 5 l-289 4 -141 90 c-166 105 -197 119 -272 124 -85 5 -149 -14
-262 -81 -177 -105 -272 -105 -440 0 -107 66 -148 80 -232 80 -84 0 -122 -13
-226 -78 -99 -62 -130 -74 -204 -78 -76 -4 -136 15 -238 76 -121 73 -137 79
-221 83 -92 4 -137 -11 -253 -83 -48 -30 -100 -57 -115 -59 -15 -3 -30 -7 -34
-10 -15 -9 -114 -6 -154 5 -22 6 -78 35 -125 64 -47 30 -101 59 -121 66 -47
15 -122 19 -176 10z m1617 -221 c0 -5 -6 -8 -13 -8 -34 0 -158 -72 -207 -121
-234 -231 -170 -629 124 -772 96 -47 155 -52 599 -51 224 0 407 -1 407 -4 0
-2 -22 -32 -49 -66 -149 -184 -388 -360 -611 -449 -25 -10 -54 -22 -65 -27
-133 -57 -346 -94 -540 -94 -153 0 -258 12 -410 49 -198 47 -483 196 -636 333
-267 239 -436 516 -514 847 -30 127 -34 149 -41 267 l-7 98 809 2 c1129 4
1154 4 1154 -4z"/>
</g>
</svg>
