<?xml version="1.0" standalone="no"?>
<svg xmlns="http://www.w3.org/2000/svg" width="264" height="264">
<path style="fill:#fcfafc; stroke:none;" d="M0 0L0 264L264 264L264 0L182 0L182 1C233.702 3.2543 261 56.5329 261 102L260 102L247 100C243.193 51.7568 208.26 16.8086 160 13L160 0L104 0L104 13C54.241 19.2886 23.2854 50.2655 17 100L4 102L3 102C3 56.4905 30.2623 3.25586 82 1L57 0L0 0z"/>
<path style="fill:#c3c385; stroke:none;" d="M82.6667 0.333344L83.3333 0.666656L82.6667 0.333344z"/>
<path style="fill:#fc2d3b; stroke:none;" d="M4 100L17 100C17.9434 54.294 58.2636 13.944 104 13L104 0C91.3332 0 79.2331 0.238831 67 4.02545C23.2673 17.5625 4 57.0727 4 100z"/>
<path style="fill:#5ebb93; stroke:none;" d="M160 0L160 13C205.706 13.9434 246.056 54.2636 247 100L260 100C260 86.5812 259.819 73.8816 255.484 61C241.104 18.2732 202.242 0 160 0z"/>
<path style="fill:#c3c385; stroke:none;" d="M180.667 0.333344L181.333 0.666656L180.667 0.333344M76.6667 1.33334L77.3333 1.66666L76.6667 1.33334M187 1L188 2L187 1M72 2L73 3L72 2M191 2L192 3L191 2M68 3L69 4L68 3M195 3L196 4L195 3M65 4L66 5L65 4M198 4L199 5L198 4M62 5L63 6L62 5M201 5L202 6L201 5M59 6L60 7L59 6M57 7L58 8L57 7M206 7L207 8L206 7M55 8L56 9L55 8M208 8L209 9L208 8M53 9L54 10L53 9M210 9L211 10L210 9M51 10L52 11L51 10M212 10L213 11L212 10M49 11L50 12L49 11M214 11L215 12L214 11M46 13L47 14L46 13M97 13L97 14L101 14L97 13M164 13L164 14L167 14L164 13M44 14L45 15L44 14M91 14L92 15L91 14M172.667 14.3333L173.333 14.6667L172.667 14.3333z"/>
<path style="fill:#aa37df; stroke:none;" d="M43 15L44 16L43 15z"/>
<path style="fill:#c3c385; stroke:none;" d="M86 15L87 16L86 15M177 15L178 16L177 15M82 16L83 17L82 16M181 16L182 17L181 16M40 17L41 18L40 17M79 17L80 18L79 17M223 17L224 18L223 17M76 18L77 19L76 18M187 18L188 19L187 18M73 19L74 20L73 19M190 19L191 20L190 19M36 20L37 21L36 20M71 20L72 21L71 20M227 20L228 21L227 20M35 21L36 22L35 21M69 21L70 22L69 21M228 21L229 22L228 21z"/>
<path style="fill:#aa37df; stroke:none;" d="M34 22L35 23L34 22z"/>
<path style="fill:#c3c385; stroke:none;" d="M63 24L64 25L63 24M61 25L62 26L61 25M202 25L203 26L202 25M204 26L205 27L204 26M56 28L57 29L56 28M207 28L208 29L207 28z"/>
<path style="fill:#aa37df; stroke:none;" d="M26 30L27 31L26 30z"/>
<path style="fill:#c3c385; stroke:none;" d="M25 31L26 32L25 31M52 31L53 32L52 31M211 31L212 32L211 31M238 31L239 32L238 31M24 32L25 33L24 32M239 32L240 33L239 32M47 35L48 36L47 35M216 35L217 36L216 35M21 36L22 37L21 36M46 36L47 37L46 36M217 36L218 37L217 36M242 36L243 37L242 36M45 37L46 38L45 37M218 37L219 38L218 37z"/>
<path style="fill:#aa37df; stroke:none;" d="M19 39L20 40L19 39z"/>
<path style="fill:#c3c385; stroke:none;" d="M41 41L42 42L41 41M222 41L223 42L222 41z"/>
<path style="fill:#aa37df; stroke:none;" d="M17 42L18 43L17 42z"/>
<path style="fill:#c3c385; stroke:none;" d="M40 42L41 43L40 42M223 42L224 43L223 42M246 42L247 43L246 42M39 43L40 44L39 43M224 43L225 44L224 43M15 45L16 46L15 45M248 45L249 46L248 45M14 47L15 48L14 47M249 47L250 48L249 47M35 48L36 49L35 48M228 48L229 49L228 48M13 49L14 50L13 49M250 49L251 50L250 49M12 51L13 52L12 51M251 51L252 52L251 51M32 52L33 53L32 52M231 52L232 53L231 52M11 53L12 54L11 53M252 53L253 54L252 53M10 55L11 56L10 55M30 55L31 56L30 55M253 55L254 56L253 55M29 57L30 58L29 57M76.6667 57.3333L77.3333 57.6667L76.6667 57.3333z"/>
<path style="fill:#aa37df; stroke:none;" d="M113 98C111.77 103.944 110.615 111.859 107.273 116.985C105.8 119.244 100.773 122.471 101.752 125.606C102.591 128.292 106.85 127.966 109 127.996C114.332 128.071 132.5 130.797 135.957 126.258C137.745 123.91 135.727 120.537 135.559 118C135.302 114.104 137.131 109.725 138.152 106C142.84 88.8944 148.007 74.4283 156 59L130 57.0008L121.071 59.4336L121.381 69L117 87L98 87L103.558 69.0147L110 58C103.158 56.7297 80.8934 53.4216 75.6466 58.858C73.205 61.3879 76.2609 66.7597 75.74 70C74.2306 79.3896 70.4532 88.8492 67.8596 98C65.6434 105.819 64.3208 114.356 59.0409 120.715C57.6729 122.362 55.2577 125.013 57.6227 126.976C59.4488 128.492 62.8125 127.995 65 128C70.4785 128.011 86.444 130.693 90.3534 126.397C92.761 123.75 89.8664 119.143 90.1011 116C91.3311 99.5232 98.6207 98 113 98z"/>
<path style="fill:#c3c385; stroke:none;" d="M107.667 57.3333L108.333 57.6667L107.667 57.3333M122 57L123 58L122 57M153 57L154 58L153 57M234 57L235 58L234 57M9 58L10 59L9 58M120 58L121 59L120 58M254 58L255 59L254 58M8.33333 60.6667L8.66667 61.3333L8.33333 60.6667M119.333 60.6667L119.667 61.3333L119.333 60.6667M155.333 60.6667L155.667 61.3333L155.333 60.6667M74 62L75 63L74 62M154 62L155 63L154 62M108 134L134 135L132 140L133 140C136.433 132.146 142.297 126.66 150 123L150 122L142 126C143.236 110.866 149.294 91.0382 155.133 77C156.97 72.5847 160.698 69.6513 162 65C158.503 64.1413 154.327 62.8434 151.228 65.4074C147.501 68.4901 147.016 74.6489 145.659 79C142.078 90.4856 138.393 102.261 135.753 114C134.975 117.461 137.774 123.659 135.353 126.258C128.711 133.389 110.081 120.95 108 134M7 64L8 65L7 64M75 64L76 65L75 64M98 87L107 87C108.002 82.1591 116.539 69.62 115.539 66.3179C114.311 62.2641 106.683 64.091 104.702 66.3179C100.484 71.0592 99.3861 80.9537 98 87M256 64L257 65L256 64M121 65L122 66L121 65M76.3333 66.6667L76.6667 67.3333L76.3333 66.6667M6.33333 67.6667L6.66667 68.3333L6.33333 67.6667M24 67L25 68L24 67M257 67L258 68L257 67M23 69L24 70L23 69M121 69L122 70L121 69M240 69L241 70L240 69M75.3333 70.6667L75.6667 71.3333L75.3333 70.6667M120.333 71.6667L120.667 72.3333L120.333 71.6667M5 72L6 73L5 72M22 72L23 73L22 72M258 72L259 73L258 72z"/>
<path style="fill:#aa37df; stroke:none;" d="M5 73L6 74L5 73z"/>
<path style="fill:#c3c385; stroke:none;" d="M74 74L75 75L74 74M119 74L119 77L120 77L119 74M21 75L22 76L21 75M4.33333 77.6667L4.66667 78.3333L4.33333 77.6667M73.3333 77.6667L73.6667 78.3333L73.3333 77.6667M259.333 77.6667L259.667 78.3333L259.333 77.6667M20 78L21 79L20 78M118.333 78.6667L118.667 79.3333L118.333 78.6667M243 78L244 79L243 78z"/>
<path style="fill:#aa37df; stroke:none;" d="M4.33333 79.6667L4.66667 80.3333L4.33333 79.6667z"/>
<path style="fill:#c3c385; stroke:none;" d="M72 81L73 82L72 81M19 82L20 83L19 82M244 82L245 83L244 82M117 83L118 84L117 83M71 85L72 86L71 85M18.3333 86.6667L18.6667 87.3333L18.3333 86.6667M116 86L117 87L116 86M245 87L246 88L245 87M70 88L71 89L70 88M3 89L3 102L4 102L3 89M260 89L260 102L261 102L260 89M69.3333 91.6667L69.6667 92.3333L69.3333 91.6667M17 93L17 97L18 97L17 93M246 93L246 96L247 96L246 93M68 95L69 96L68 95M101 105L112 105L113 98C108.561 98 98.1806 96.0747 94.9344 99.6034C91.8251 102.983 89.8024 112.496 89.6767 117C89.5826 120.371 92.5312 124.608 88.8086 126.972C84.0574 129.99 74.4405 127.782 69.0008 128.019C66.9232 128.11 62.3504 128.535 62.9213 131.741C63.3886 134.365 68.0667 134.156 70 134.424C76.1289 135.272 91.295 137.599 96.5509 133.821C100.012 131.333 96.663 127.196 96.5995 124C96.4749 117.725 100.446 111.35 101 105M67 99L68 100L67 99M66 102L67 103L66 102M65 106L66 107L65 106M110 107L111 108L110 107M64 109L65 110L64 109M109.333 110.667L109.667 111.333L109.333 110.667M63.3333 112.667L63.6667 113.333L63.3333 112.667M108 115L109 116L108 115M62 116L63 117L62 116M107 117L108 118L107 117M61 118L62 119L61 118M165.667 118.333L166.333 118.667L165.667 118.333M157 119L157 120L160 120L157 119z"/>
<path style="fill:#5ebb93; stroke:none;" d="M171 182C173.089 187.956 181.341 194.527 187.005 187.682C191.764 181.931 191.099 172.55 194.558 166.043C197.379 160.736 202.5 159.615 203 153L175 153C172.277 153 166.938 152.061 165.047 154.599C162.092 158.565 168.642 160.296 170.394 162.429C174.01 166.832 169.683 174.596 164.985 176.238C158.284 178.581 154.115 170.49 154.079 165C154.012 154.678 158.53 140.76 167.015 134.434C179.952 124.787 185.34 150.847 196.772 143.971C200.844 141.523 204.84 127.658 203.167 123.228C199.876 114.508 188.793 125.515 184 124.423C177.202 122.874 172.483 118.922 165 119.019C143.307 119.299 127.985 138.162 127.039 159C126.755 165.259 126.491 172.278 129.438 177.999C138.107 194.828 158.94 193.434 171 182z"/>
<path style="fill:#c3c385; stroke:none;" d="M171 119L171 120L174 120L171 119M196 119L196 120L200 120L196 119M59 120L60 121L59 120M104 120L105 121L104 120M154.667 120.333L155.333 120.667L154.667 120.333M175 120L176 121L175 120M193 120L194 121L193 120M201 120L202 121L201 120M58 121L59 122L58 121M103 121L104 122L103 121M151.667 121.333L152.333 121.667L151.667 121.333M178 121L179 122L178 121M191 121L192 122L191 121M56 122L57 123L56 122M101 122L102 123L101 122M180 122L181 123L180 122M190 122L191 123L190 122M203 122L204 123L203 122M181 123L182 124L181 123M55.3333 124.667L55.6667 125.333L55.3333 124.667M100.333 124.667L100.667 125.333L100.333 124.667M183 124L183 125L187 126L187 125L183 124M187 124L188 125L187 124M197 144C207.086 157.535 218.487 138.615 215.084 128.148C213.534 123.382 204.899 124.124 203.018 128.148C200.549 133.429 200.331 139.016 197 144M101.667 127.333L102.333 127.667L101.667 127.333M168 176C165.281 171.112 165.254 165.308 169 161L169 160C163.181 158.227 164.552 153.869 170 153C171.278 145.834 175.567 140.34 182 137C162.543 112.454 137.527 183.232 168 176M182 137L183 138L182 137M183 138L184 139L183 138M184 139L185 140L184 139M185 140L186 141L185 140M131 141L132 142L131 141M130.333 143.667L130.667 144.333L130.333 143.667M189 144L190 145L189 144M191 145L191 146L196 146L191 145M129 146L130 147L129 146M128.333 149.667L128.667 150.333L128.333 149.667M127.333 153.667L127.667 154.333L127.333 153.667M203 154C201.541 159.152 197.008 160.676 194.558 165.104C191.41 170.792 186.305 202.229 173.708 186.877C172.542 185.455 171.813 183.629 171 182C163.66 186.998 158.182 190.923 149 191L149 192C155.769 193.847 161.827 195.929 169 194.671C173.06 193.96 176.809 191.079 181 191.248C186.714 191.48 191.981 197.71 197.721 193.258C203.871 188.488 202.624 176.527 206.279 170.043C208.849 165.483 213.861 163.973 216 159L204 158L203 154z"/>
<path style="fill:#aa37df; stroke:none;" d="M4 156C4 200.19 23.9096 239.578 69 252.964C80.5481 256.392 92.098 256 104 256L104 243C58.4412 242.623 17.3771 201.552 17 156L4 156z"/>
<path style="fill:#fc2d3b; stroke:none;" d="M247 156C246.875 201.477 205.475 242.875 160 243L160 256C172.601 256 184.836 255.74 197 251.975C240.839 238.404 260 199.05 260 156L247 156z"/>
<path style="fill:#c3c385; stroke:none;" d="M17 159L17 164L18 164L17 159M126 159L126 169L127 169L126 159M246 160L246 165L247 165L246 160M3 161L3 173L4 173L3 161z"/>
<path style="fill:#fcfafc; stroke:none;" d="M167 161L166 175C172.067 172.889 173.929 163.105 167 161z"/>
<path style="fill:#c3c385; stroke:none;" d="M170 161L171 162L170 161M171 162L172 163L171 162M260 162L260 175L261 175L260 162M171.333 167.667L171.667 168.333L171.333 167.667M18.3333 168.667L18.6667 169.333L18.3333 168.667M245 168L245 171L246 171L245 168M170.333 170.667L170.667 171.333L170.333 170.667M127.333 172.667L127.667 173.333L127.333 172.667M19.3333 173.667L19.6667 174.333L19.3333 173.667M169 173L170 174L169 173M244.333 173.667L244.667 174.333L244.333 173.667M3 174L4 175L3 174M259 175L259 179L260 179L259 175M4 176L4 183L5 183L4 176M128 176L129 177L128 176M20.3333 177.667L20.6667 178.333L20.3333 177.667M243.333 177.667L243.667 178.333L243.333 177.667M21.3333 180.667L21.6667 181.333L21.3333 180.667M131 181L132 182L131 181M242 181L243 182L242 181M132 182L133 183L132 182M258.333 182.667L258.667 183.333L258.333 182.667M5 183L6 184L5 183M22 183L23 184L22 183M133 183L134 184L133 183M241.333 183.667L241.667 184.333L241.333 183.667M135 185L136 186L135 185M23 186L24 187L23 186M136 186L137 187L136 186M240 186L241 187L240 186M138 187L139 188L138 187M257.333 187.667L257.667 188.333L257.333 187.667M24 188L25 189L24 188M140 188L141 189L140 188M142 189L143 190L142 189M239 189L240 190L239 189M25.3333 190.667L25.6667 191.333L25.3333 190.667M145.667 190.333L146.333 190.667L145.667 190.333M238 191L239 192L238 191M256 191L257 192L256 191M26 193L27 194L26 193M237 193L238 194L237 193M255.333 194.667L255.667 195.333L255.333 194.667M27 195L28 196L27 195M236 195L237 196L236 195M28 196L29 197L28 196z"/>
<path style="fill:#5ebb93; stroke:none;" d="M9 197L10 198L9 197z"/>
<path style="fill:#c3c385; stroke:none;" d="M235 197L236 198L235 197M254 197L255 198L254 197M29 198L30 199L29 198M234 198L235 199L234 198M30 200L31 201L30 200M233 200L234 201L233 200z"/>
<path style="fill:#5ebb93; stroke:none;" d="M11 202L12 203L11 202z"/>
<path style="fill:#c3c385; stroke:none;" d="M252 202L253 203L252 202M32 203L33 204L32 203M231 203L232 204L231 203M251 204L252 205L251 204M34 206L35 207L34 206M229 206L230 207L229 206M250 206L251 207L250 206M35 207L36 208L35 207M228 207L229 208L228 207M249 208L250 209L249 208z"/>
<path style="fill:#5ebb93; stroke:none;" d="M15 210L16 211L15 210z"/>
<path style="fill:#c3c385; stroke:none;" d="M248 210L249 211L248 210M38 211L39 212L38 211M225 211L226 212L225 211M39 212L40 213L39 212M224 212L225 213L224 212M40 213L41 214L40 213M223 213L224 214L223 213M41 214L42 215L41 214M222 214L223 215L222 214z"/>
<path style="fill:#5ebb93; stroke:none;" d="M18 215L19 216L18 215z"/>
<path style="fill:#c3c385; stroke:none;" d="M45 218L46 219L45 218M218 218L219 219L218 218M46 219L47 220L46 219M217 219L218 220L217 219M242 219L243 220L242 219M47 220L48 221L47 220M216 220L217 221L216 220M48 221L49 222L48 221M215 221L216 222L215 221M214 222L215 223L214 222M239 223L240 224L239 223M52 224L53 225L52 224M211 224L212 225L211 224z"/>
<path style="fill:#aa37df; stroke:none;" d="M238 224L239 225L238 224z"/>
<path style="fill:#c3c385; stroke:none;" d="M53 225L54 226L53 225M210 225L211 226L210 225M56 227L57 228L56 227M207 227L208 228L207 227M59 229L60 230L59 229M204 229L205 230L204 229M61 230L62 231L61 230M202 230L203 231L202 230M201 231L202 232L201 231M64 232L65 233L64 232M199 232L200 233L199 232M66 233L67 234L66 233M197 233L198 234L197 233M68 234L69 235L68 234M195 234L196 235L195 234z"/>
<path style="fill:#aa37df; stroke:none;" d="M228 234L229 235L228 234z"/>
<path style="fill:#c3c385; stroke:none;" d="M71 235L72 236L71 235M193 235L194 236L193 235M227 235L228 236L227 235M73 236L74 237L73 236M190 236L191 237L190 236M75.6667 237.333L76.3333 237.667L75.6667 237.333M188 237L189 238L188 237M78.6667 238.333L79.3333 238.667L78.6667 238.333M185 238L186 239L185 238z"/>
<path style="fill:#aa37df; stroke:none;" d="M223 238L224 239L223 238z"/>
<path style="fill:#c3c385; stroke:none;" d="M82 239L83 240L82 239M181.667 239.333L182.333 239.667L181.667 239.333M85.6667 240.333L86.3333 240.667L85.6667 240.333M177.667 240.333L178.333 240.667L177.667 240.333M90.6667 241.333L91.3333 241.667L90.6667 241.333M172 241L172 242L175 242L172 241z"/>
<path style="fill:#5ebb93; stroke:none;" d="M219 241L220 242L219 241z"/>
<path style="fill:#c3c385; stroke:none;" d="M96 242L96 243L101 243L96 242M164 242L164 243L169 243L164 242z"/>
<path style="fill:#aa37df; stroke:none;" d="M217 242L218 243L217 242M214 244L215 245L214 244M212 245L213 246L212 245M210 246L211 247L210 246M208 247L209 248L208 247M206 248L207 249L206 248z"/>
<path style="fill:#5ebb93; stroke:none;" d="M204 249L205 250L204 249z"/>
<path style="fill:#aa37df; stroke:none;" d="M201 250L202 251L201 250M198 251L199 252L198 251M195 252L196 253L195 252M191 253L192 254L191 253M186.667 254.333L187.333 254.667L186.667 254.333M179 255L179 256L182 256L179 255z"/>
<path style="fill:#5ebb93; stroke:none;" d="M182 255L183 256L182 255z"/>
<path style="fill:#c3c385; stroke:none;" d="M106 258L106 259L158 259L141 258L106 258z"/>
</svg>
