<?xml version="1.0" encoding="utf-8"?>
<svg fill="none" height="380px" viewBox="0 0 480 380" width="480px" xmlns="http://www.w3.org/2000/svg">
  <filter id="b" color-interpolation-filters="sRGB" filterUnits="userSpaceOnUse" height="321.995" width="315.151" x="0" y="291.398">
    <feFlood flood-opacity="0" result="BackgroundImageFix"/>
    <feColorMatrix in="SourceAlpha" result="hardAlpha" type="matrix" values="0 0 0 0 0 0 0 0 0 0 0 0 0 0 0 0 0 0 127 0"/>
    <feOffset dy="4"/>
    <feGaussianBlur stdDeviation="10"/>
    <feColorMatrix type="matrix" values="0 0 0 0 0.196078 0 0 0 0 0.196078 0 0 0 0 0.278431 0 0 0 0.08 0"/>
    <feBlend in2="BackgroundImageFix" mode="normal" result="effect1_dropShadow"/>
    <feColorMatrix in="SourceAlpha" result="hardAlpha" type="matrix" values="0 0 0 0 0 0 0 0 0 0 0 0 0 0 0 0 0 0 127 0"/>
    <feOffset/>
    <feGaussianBlur stdDeviation=".5"/>
    <feColorMatrix type="matrix" values="0 0 0 0 0.0470588 0 0 0 0 0.101961 0 0 0 0 0.294118 0 0 0 0.1 0"/>
    <feBlend in2="effect1_dropShadow" mode="normal" result="effect2_dropShadow"/>
    <feBlend in="SourceGraphic" in2="effect2_dropShadow" mode="normal" result="shape"/>
  </filter>
  <g filter="url(#b)" transform="matrix(1, 0, 0, 1, 18.963211, -260.568573)">
    <path d="m281.19 307.398h-247.0792c-7.7032 0-13.9479 6.596-13.9479 14.732v252.531c0 8.136 6.2447 14.732 13.9479 14.732h247.0792c7.702 0 13.947-6.596 13.947-14.732v-252.531c0-8.136-6.245-14.732-13.947-14.732z" fill="#fff"/>
    <path d="m20 359.843h275.151" stroke="#ebeef2"/>
    <path d="m58.8801 422.648c10.4612 0 18.9416-8.479 18.9416-18.94 0-10.462-8.4804-18.942-18.9416-18.942-10.4611 0-18.9415 8.48-18.9415 18.942 0 10.461 8.4804 18.94 18.9415 18.94z" fill="#eff1f5"/>
    <path d="m273.219 392.742h-61.81c-2.202 0-3.987 1.784-3.987 3.987s1.785 3.988 3.987 3.988h61.81c2.202 0 3.988-1.785 3.988-3.988s-1.786-3.987-3.988-3.987z" fill="#d3d5de"/>
    <path d="m275.213 408.693h-37.884c-1.101 0-1.993.891-1.993 1.993s.892 1.994 1.993 1.994h37.884c1.101 0 1.993-.892 1.993-1.994s-.892-1.993-1.993-1.993z" fill="#eff1f5"/>
    <path d="m58.8801 491.479c10.4612 0 18.9416-8.48 18.9416-18.942 0-10.461-8.4804-18.942-18.9416-18.942-10.4611 0-18.9415 8.481-18.9415 18.942 0 10.462 8.4804 18.942 18.9415 18.942z" fill="#eff1f5"/>
    <path d="m273.219 461.571h-61.81c-2.202 0-3.987 1.785-3.987 3.988s1.785 3.987 3.987 3.987h61.81c2.202 0 3.988-1.784 3.988-3.987s-1.786-3.988-3.988-3.988z" fill="#d3d5de"/>
    <path d="m275.213 477.522h-37.884c-1.101 0-1.993.892-1.993 1.993s.892 1.994 1.993 1.994h37.884c1.101 0 1.993-.893 1.993-1.994s-.892-1.993-1.993-1.993z" fill="#eff1f5"/>
    <path d="m58.8801 555.628c10.4612 0 18.9416-8.479 18.9416-18.941 0-10.461-8.4804-18.942-18.9416-18.942-10.4611 0-18.9415 8.481-18.9415 18.942 0 10.462 8.4804 18.941 18.9415 18.941z" fill="#eff1f5"/>
    <path d="m273.219 525.72h-61.81c-2.202 0-3.987 1.786-3.987 3.988s1.785 3.988 3.987 3.988h61.81c2.202 0 3.988-1.786 3.988-3.988s-1.786-3.988-3.988-3.988z" fill="#d3d5de"/>
    <path d="m275.213 541.671h-37.884c-1.101 0-1.993.893-1.993 1.994s.892 1.994 1.993 1.994h37.884c1.101 0 1.993-.893 1.993-1.994s-.892-1.994-1.993-1.994z" fill="#eff1f5"/>
  </g>
  <g transform="matrix(1, 0, 0, 1, -6.32107, -264.080292)">
    <path d="M 445 348 L 363 348 C 359.134 348 356 351.134 356 355 L 356 472 C 356 475.866 359.134 479 363 479 L 445 479 C 448.866 479 452 475.866 452 472 L 452 355 C 452 351.134 448.866 348 445 348 Z" fill="#f0f3ff"/>
    <path d="M 431 368.904 L 376.182 368.904 C 374.525 368.904 373.182 370.247 373.182 371.904 L 373.182 405.382 C 373.182 407.039 374.525 408.382 376.182 408.382 L 431 408.382 C 432.657 408.382 434 407.039 434 405.382 L 434 371.904 C 434 370.247 432.657 368.904 431 368.904 Z" fill="#a2b4ff"/>
    <path d="M 423.864 446.794 L 374.782 446.794 C 373.899 446.794 373.182 446.077 373.182 445.194 C 373.182 444.31 373.899 443.593 374.782 443.593 L 423.864 443.593 C 424.748 443.593 425.464 444.31 425.464 445.194 C 425.464 446.077 424.748 446.794 423.864 446.794 Z" fill="#a1b4ff"/>
    <path d="M 394.5 458 L 374.5 458 C 373.672 458 373 457.328 373 456.5 C 373 455.672 373.672 455 374.5 455 L 394.5 455 C 395.328 455 396 455.672 396 456.5 C 396 457.328 395.328 458 394.5 458 Z" fill="#a1b4ff"/>
    <path d="M 407.859 436.124 L 374.782 436.124 C 373.899 436.124 373.182 435.407 373.182 434.524 C 373.182 433.64 373.899 432.923 374.782 432.923 L 407.859 432.923 C 408.743 432.923 409.46 433.64 409.46 434.524 C 409.46 435.407 408.743 436.124 407.859 436.124 Z" fill="#a1b4ff"/>
    <path d="M 417.462 424.388 L 374.782 424.388 C 373.899 424.388 373.182 423.671 373.182 422.788 C 373.182 421.904 373.899 421.187 374.782 421.187 L 417.462 421.187 C 418.346 421.187 419.062 421.904 419.062 422.788 C 419.062 423.671 418.346 424.388 417.462 424.388 Z" fill="#a1b4ff"/>
  </g>
</svg>