<?xml version="1.0" encoding="utf-8"?>
<svg fill="none" height="350px" viewBox="0 0 460 350" width="460px" xmlns="http://www.w3.org/2000/svg">
  <filter id="b" color-interpolation-filters="sRGB" filterUnits="userSpaceOnUse" height="321.995" width="315.151" x="0" y="291.398">
    <feFlood flood-opacity="0" result="BackgroundImageFix"/>
    <feColorMatrix in="SourceAlpha" result="hardAlpha" type="matrix" values="0 0 0 0 0 0 0 0 0 0 0 0 0 0 0 0 0 0 127 0"/>
    <feOffset dy="4"/>
    <feGaussianBlur stdDeviation="10"/>
    <feColorMatrix type="matrix" values="0 0 0 0 0.196078 0 0 0 0 0.196078 0 0 0 0 0.278431 0 0 0 0.08 0"/>
    <feBlend in2="BackgroundImageFix" mode="normal" result="effect1_dropShadow"/>
    <feColorMatrix in="SourceAlpha" result="hardAlpha" type="matrix" values="0 0 0 0 0 0 0 0 0 0 0 0 0 0 0 0 0 0 127 0"/>
    <feOffset/>
    <feGaussianBlur stdDeviation=".5"/>
    <feColorMatrix type="matrix" values="0 0 0 0 0.0470588 0 0 0 0 0.101961 0 0 0 0 0.294118 0 0 0 0.1 0"/>
    <feBlend in2="effect1_dropShadow" mode="normal" result="effect2_dropShadow"/>
    <feBlend in="SourceGraphic" in2="effect2_dropShadow" mode="normal" result="shape"/>
  </filter>
  <g filter="url(#b)" transform="matrix(1, 0, 0, 1, 4.052817, -281.787201)">
    <path d="M 286.351 314.853 L 39.272 314.853 C 31.569 314.853 25.324 321.449 25.324 329.585 L 25.324 582.116 C 25.324 590.252 31.569 596.848 39.272 596.848 L 286.351 596.848 C 294.053 596.848 300.298 590.252 300.298 582.116 L 300.298 329.585 C 300.298 321.449 294.053 314.853 286.351 314.853 Z" fill="#fff"/>
    <path d="M 25.161 367.298 L 300.312 367.298" stroke="#ebeef2"/>
    <path d="M 64.041 430.103 C 74.502 430.103 82.983 421.624 82.983 411.163 C 82.983 400.701 74.502 392.221 64.041 392.221 C 53.58 392.221 45.1 400.701 45.1 411.163 C 45.1 421.624 53.58 430.103 64.041 430.103 Z" fill="#eff1f5"/>
    <path d="M 278.38 400.197 L 216.57 400.197 C 214.368 400.197 212.583 401.981 212.583 404.184 C 212.583 406.387 214.368 408.172 216.57 408.172 L 278.38 408.172 C 280.582 408.172 282.368 406.387 282.368 404.184 C 282.368 401.981 280.582 400.197 278.38 400.197 Z" fill="#d3d5de"/>
    <path d="M 280.374 416.148 L 242.49 416.148 C 241.389 416.148 240.497 417.039 240.497 418.141 C 240.497 419.243 241.389 420.135 242.49 420.135 L 280.374 420.135 C 281.475 420.135 282.367 419.243 282.367 418.141 C 282.367 417.039 281.475 416.148 280.374 416.148 Z" fill="#eff1f5"/>
    <path d="M 64.041 498.934 C 74.502 498.934 82.983 490.454 82.983 479.992 C 82.983 469.531 74.502 461.05 64.041 461.05 C 53.58 461.05 45.1 469.531 45.1 479.992 C 45.1 490.454 53.58 498.934 64.041 498.934 Z" fill="#eff1f5"/>
    <path d="M 278.38 469.026 L 216.57 469.026 C 214.368 469.026 212.583 470.811 212.583 473.014 C 212.583 475.217 214.368 477.001 216.57 477.001 L 278.38 477.001 C 280.582 477.001 282.368 475.217 282.368 473.014 C 282.368 470.811 280.582 469.026 278.38 469.026 Z" fill="#d3d5de"/>
    <path d="M 280.374 484.977 L 242.49 484.977 C 241.389 484.977 240.497 485.869 240.497 486.97 C 240.497 488.071 241.389 488.964 242.49 488.964 L 280.374 488.964 C 281.475 488.964 282.367 488.071 282.367 486.97 C 282.367 485.869 281.475 484.977 280.374 484.977 Z" fill="#eff1f5"/>
    <path d="M 64.041 563.083 C 74.502 563.083 82.983 554.604 82.983 544.142 C 82.983 533.681 74.502 525.2 64.041 525.2 C 53.58 525.2 45.1 533.681 45.1 544.142 C 45.1 554.604 53.58 563.083 64.041 563.083 Z" fill="#eff1f5"/>
    <path d="M 278.38 533.175 L 216.57 533.175 C 214.368 533.175 212.583 534.961 212.583 537.163 C 212.583 539.365 214.368 541.151 216.57 541.151 L 278.38 541.151 C 280.582 541.151 282.368 539.365 282.368 537.163 C 282.368 534.961 280.582 533.175 278.38 533.175 Z" fill="#d3d5de"/>
    <path d="M 280.374 549.126 L 242.49 549.126 C 241.389 549.126 240.497 550.019 240.497 551.12 C 240.497 552.221 241.389 553.114 242.49 553.114 L 280.374 553.114 C 281.475 553.114 282.367 552.221 282.367 551.12 C 282.367 550.019 281.475 549.126 280.374 549.126 Z" fill="#eff1f5"/>
  </g>
  <g transform="matrix(1, 0, 0, 1, -5.747594, -262.359863)">
    <path d="M 428.369 354.308 L 346.369 354.308 C 342.503 354.308 339.369 357.442 339.369 361.308 L 339.369 478.308 C 339.369 482.174 342.503 485.308 346.369 485.308 L 428.369 485.308 C 432.235 485.308 435.369 482.174 435.369 478.308 L 435.369 361.308 C 435.369 357.442 432.235 354.308 428.369 354.308 Z" fill="#f0f3ff"/>
    <path d="M 414.369 375.212 L 359.551 375.212 C 357.894 375.212 356.551 376.555 356.551 378.212 L 356.551 411.69 C 356.551 413.347 357.894 414.69 359.551 414.69 L 414.369 414.69 C 416.026 414.69 417.369 413.347 417.369 411.69 L 417.369 378.212 C 417.369 376.555 416.026 375.212 414.369 375.212 Z" fill="#a2b4ff"/>
    <path d="M 407.233 453.102 L 358.151 453.102 C 357.268 453.102 356.551 452.385 356.551 451.502 C 356.551 450.618 357.268 449.901 358.151 449.901 L 407.233 449.901 C 408.117 449.901 408.833 450.618 408.833 451.502 C 408.833 452.385 408.117 453.102 407.233 453.102 Z" fill="#a1b4ff"/>
    <path d="M 377.869 464.308 L 357.869 464.308 C 357.041 464.308 356.369 463.636 356.369 462.808 C 356.369 461.98 357.041 461.308 357.869 461.308 L 377.869 461.308 C 378.697 461.308 379.369 461.98 379.369 462.808 C 379.369 463.636 378.697 464.308 377.869 464.308 Z" fill="#a1b4ff"/>
    <path d="M 391.228 442.432 L 358.151 442.432 C 357.268 442.432 356.551 441.715 356.551 440.832 C 356.551 439.948 357.268 439.231 358.151 439.231 L 391.228 439.231 C 392.112 439.231 392.829 439.948 392.829 440.832 C 392.829 441.715 392.112 442.432 391.228 442.432 Z" fill="#a1b4ff"/>
    <path d="M 400.831 430.696 L 358.151 430.696 C 357.268 430.696 356.551 429.979 356.551 429.096 C 356.551 428.212 357.268 427.495 358.151 427.495 L 400.831 427.495 C 401.715 427.495 402.431 428.212 402.431 429.096 C 402.431 429.979 401.715 430.696 400.831 430.696 Z" fill="#a1b4ff"/>
  </g>
</svg>