<?xml version="1.0" encoding="UTF-8"?>
<svg id="Layer_1" data-name="Layer 1" xmlns="http://www.w3.org/2000/svg"
	xmlns:xlink="http://www.w3.org/1999/xlink" viewBox="0 0 256 256">
	<defs>
		<style>
			.cls-1 {
			fill: url(#linear-gradient-2);
			}

			.cls-2 {
			fill: #7ed957;
			}

			.cls-3 {
			fill: #00e900;
			}

			.cls-4 {
			clip-path: url(#clippath);
			}

			.cls-5 {
			fill: none;
			}

			.cls-6 {
			fill: #f48c06;
			}

			.cls-7 {
			fill: url(#linear-gradient-3);
			}

			.cls-8 {
			fill: url(#linear-gradient);
			}

			.cls-9 {
			fill: #d51201;
			}
		</style>
		<linearGradient id="linear-gradient" x1="25.21" y1="50.1" x2="226.49" y2="50.1"
			gradientUnits="userSpaceOnUse">
			<stop offset=".54" stop-color="#ff2080" />
			<stop offset="1" stop-color="#ff3ff5" />
		</linearGradient>
		<linearGradient id="linear-gradient-2" x1="124.7" y1="141.65" x2="126.6" y2="141.65"
			gradientUnits="userSpaceOnUse">
			<stop offset=".54" stop-color="#ff2080" />
			<stop offset="1" stop-color="#ff3ff5" />
		</linearGradient>
		<linearGradient id="linear-gradient-3" x1="25.27" y1="178.66" x2="243.4" y2="178.66"
			xlink:href="#linear-gradient-2" />
		<clipPath id="clippath">
			<rect class="cls-5" x="101.1" y="83.8" width="25.5" height="38.8" />
		</clipPath>
	</defs>
	<path class="cls-8"
		d="M209.2,43.7c4.4,5.5,9,10.8,13.1,16.6,7,10.1,5,22.8-4.3,29.1-9.6,6.5-21.5,4-28.8-6-27.2-37.6-73.8-47.1-111.8-22.5-5.8,3.8-11.1,8.7-15.9,13.7-8.9,9.1-20.6,10.5-29.2,2.8-9.2-8.2-9.5-20.3-.6-30.1C68.8,6,129.2-4.7,178.6,21.3c5.2,2.7,10.2,5.8,14.9,9.2,5.5,4.1,10.5,8.8,15.7,13.2Z" />
	<path class="cls-1"
		d="M126.6,148.5h-1.9c.45-1.66,.83-3.33,1.13-5.03,.1-.57,.19-1.14,.27-1.71,.33-2.26,.5-4.57,.5-6.96v13.7Z" />
	<path class="cls-7"
		d="M243.4,130.6c-1.8,91.1-101.3,148.1-180.5,102.9-11.2-6.3-21.2-15.2-30.6-24.2-9.7-9.2-9-21.9-.1-30,7.2-6.5,20.2-7.3,29.8,2.9,24.5,26.1,54.6,33.4,88.3,21.6,24.1-8.4,40-26,48.5-50,.4-1.2,.6-2.6,1-4.6-9.9,0-19.4-.1-29-.2-14.67-.1-29.43-.3-44.1-.5v-40.5c32.1,.3,64.1,.6,96.2,1,12.2,.2,20.7,9.2,20.5,21.6Z" />
	<g>
		<path class="cls-3"
			d="M126.72,102.8v32c0,2.39-.17,4.7-.5,6.96-.08,.57-.17,1.14-.27,1.71-.3,1.7-.68,3.37-1.13,5.03-6,21.5-25.7,37.3-49.1,37.3-1.9,0-3.7-.1-5.5-.3v-4.2c1.8,.4,3.6,.6,5.5,.6,14.1,0,25.5-11.6,25.5-25.7v-22.6c0-.19,0-.37,.01-.56,.07-1.22,.34-2.43,.69-3.64,.6-1.8,1.6-3.4,3-4.8l16.19-16.19s.07,0,.11,0l.4-.4h-.1l5.2-5.2Z" />
		<path class="cls-2" d="M57.29,102.81s.07-.01,.11-.01h-.01s-.07,.02-.11,.02h.01Z" />
	</g>
	<g class="cls-4">
		<path class="cls-9"
			d="M101.1,114.5v8l21.8-21.8c2.4-2.4,3.7-5.6,3.7-8.9v-8l-21.8,21.8c-2.4,2.4-3.7,5.6-3.7,8.9" />
	</g>
	<g>
		<rect class="cls-6" x="59.25" y="69.8" width="22.1" height="116" rx="11.05" ry="11.05" />
		<rect class="cls-6" x="10.05" y="116.9" width="71.5" height="21.8" rx="10.9" ry="10.9" />
		<rect class="cls-6" x="9.9" y="69.8" width="22.1" height="116" rx="11.05" ry="11.05" />
	</g>
</svg>