<svg xmlns="http://www.w3.org/2000/svg" width="157" height="49.22" viewBox="0 0 157 49.22">
    <defs>
        <style>
            .cls-1{
                fill:#00aeef;
                animation: lta 10s infinite;
            }
            
            @keyframes lta {
                0% {fill:#aa44aa;}
                25%{fill:#099000;}
                50%{fill:#ff3399;}
                75%{fill:#aaff09}
                100% {fill:#cc2222}
            }
        </style>
    </defs>
    <g id="layer" data-name="Layer">
        <path class="cls-1" d="M14.34,23.62c.54-3.41.8-5.39.8-5.92a.74.74,0,0,0-.08-.36.51.51,0,0,0-.27-.2,3,3,0,0,0-.66-.09l-1-.06-.07-.1.08-.67.1-.09c.84.05,1.86.08,3.06.08.93,0,2.24,0,3.9-.08l.07.09-.1.67-.1.1a12.06,12.06,0,0,0-1.39.09.7.7,0,0,0-.29.17,1,1,0,0,0-.2.33,20.45,20.45,0,0,0-.46,2.24l-1.4,9.06C16.13,30.4,16,31.34,16,31.7a.63.63,0,0,0,.23.54,1.34,1.34,0,0,0,.71.19l1.11.06.08.1-.07.6-.1.11c-.84,0-1.95-.08-3.34-.08s-2.54,0-3.65.08l-.08-.1.07-.6.09-.11.51,0a2.62,2.62,0,0,0,1.09-.17,1,1,0,0,0,.32-.53,21.56,21.56,0,0,0,.48-2.49l.7-4.47H7.76c-.65,4.05-1,6.36-1,6.91a.63.63,0,0,0,.23.54,1.32,1.32,0,0,0,.69.19l1.12.06.08.1-.06.6-.1.11c-.94,0-2.06-.08-3.34-.08s-2.54,0-3.66.08l-.07-.1.05-.6.11-.11.5,0a2.55,2.55,0,0,0,1.09-.17,1.11,1.11,0,0,0,.33-.52c.09-.26.29-1.33.58-3.2l1-6.43a43.89,43.89,0,0,0,.57-4.42.75.75,0,0,0-.08-.37.48.48,0,0,0-.26-.2,3,3,0,0,0-.66-.09l-1-.06-.08-.1.09-.67.1-.09c.87.05,1.89.08,3.05.08.77,0,2.07,0,3.91-.08l.06.09-.09.67-.1.1a11.94,11.94,0,0,0-1.37.09.73.73,0,0,0-.32.18,1.49,1.49,0,0,0-.27.57,22,22,0,0,0-.42,2.32l-.56,3.47c1.44.06,2.51.08,3.23.08Z" />
        <path class="cls-1" d="M19.88,29.83A14.88,14.88,0,0,1,20.23,27a7.26,7.26,0,0,1,1.17-2.84,7.09,7.09,0,0,1,2.25-2,5.68,5.68,0,0,1,2.91-.82,3.41,3.41,0,0,1,2.52,1,4,4,0,0,1,1,2.94,12.09,12.09,0,0,1-.59,3.64,5.9,5.9,0,0,1-1.6,2.72,12.75,12.75,0,0,1-2.09,1.47,5.06,5.06,0,0,1-2.48.61,3.31,3.31,0,0,1-2.07-.57,3,3,0,0,1-1-1.47A5.81,5.81,0,0,1,19.88,29.83Zm2.57-.1a3.6,3.6,0,0,0,.5,2.14,1.68,1.68,0,0,0,1.44.67,1.74,1.74,0,0,0,1.14-.4,3.56,3.56,0,0,0,.94-1.43,12.16,12.16,0,0,0,.7-2.58,17.14,17.14,0,0,0,.26-2.79,3.4,3.4,0,0,0-.55-2.22,1.73,1.73,0,0,0-1.35-.63,1.9,1.9,0,0,0-1.47.72A6.59,6.59,0,0,0,22.94,26,16.22,16.22,0,0,0,22.45,29.73Z" />
        <path class="cls-1" d="M42,30.64l.24.47,0,.16a31.09,31.09,0,0,1-2.71,2.06,2.52,2.52,0,0,1-1.22.44.64.64,0,0,1-.55-.32,1.62,1.62,0,0,1-.2-.83,9.53,9.53,0,0,1,.17-1.47c.12-.65.37-1.82.76-3.52a18.5,18.5,0,0,1-3.29,4.82,4.1,4.1,0,0,1-2.38,1.34,1.07,1.07,0,0,1-.87-.5,3.22,3.22,0,0,1-.36-1.79,13.85,13.85,0,0,1,.3-2.65,22.68,22.68,0,0,1,.86-3.06,4.36,4.36,0,0,1,.67-1.26A13.89,13.89,0,0,1,35,23a9,9,0,0,1,1.82-1.25A3.16,3.16,0,0,1,38,21.54a4.7,4.7,0,0,1,1.13.16,4.64,4.64,0,0,1,1.19.48l1-.65.36.29a19.51,19.51,0,0,0-.66,2.63l-.8,4.1a20.48,20.48,0,0,0-.43,2.66c0,.31.1.47.28.47a4.92,4.92,0,0,0,1.71-1ZM38.9,23.41a3.73,3.73,0,0,0-1.79-.54,1.61,1.61,0,0,0-1.37.75A11.58,11.58,0,0,0,34.61,27,18.51,18.51,0,0,0,34,30.8c0,.6.15.9.44.9s.84-.5,1.63-1.52A14.76,14.76,0,0,0,38,26.8,12.24,12.24,0,0,0,38.9,23.41Zm2.18-3.74-.62.34-1.34-1.43C38.58,18,38,17.47,37.51,17l-1.67-1.58L36,15.1l.13-.06,2.41.32.14.13c.45.8,1.26,2.15,2.41,4Z" />
        <path class="cls-1" d="M43.41,33.66l-.29-.3A31.77,31.77,0,0,0,44,30.21q.54-2.21.78-3.84A18.1,18.1,0,0,0,45,24.28c0-.27-.09-.41-.25-.41a4.19,4.19,0,0,0-1.57,1h-.15l-.22-.43V24.3c.38-.36.82-.75,1.32-1.18A16.28,16.28,0,0,1,45.52,22a4.76,4.76,0,0,1,.91-.55,1.73,1.73,0,0,1,.56-.11c.39,0,.59.26.59.79a10,10,0,0,1-.19,1.65c-.13.72-.4,1.95-.82,3.68a15.09,15.09,0,0,1,3.1-4.32c1.24-1.19,2.25-1.79,3-1.79.61,0,.92.39.92,1.15a9.06,9.06,0,0,1-.25,1.8c-.17.78-.43,1.92-.8,3.43q-.37,1.5-.51,2.34a9.43,9.43,0,0,0-.14,1.09c0,.29.09.44.27.44s.81-.33,1.59-1h.13l.24.48,0,.15a21.67,21.67,0,0,1-2.66,2,3.07,3.07,0,0,1-1.38.44.6.6,0,0,1-.62-.4,2.25,2.25,0,0,1-.16-.81,21.57,21.57,0,0,1,.76-4,23.33,23.33,0,0,0,.84-4.17c0-.33-.14-.5-.42-.5a1.34,1.34,0,0,0-.54.19,4.9,4.9,0,0,0-1,.95,11.18,11.18,0,0,0-1.21,1.72,13.15,13.15,0,0,0-1,2.07,19.23,19.23,0,0,0-.68,2.39,16.79,16.79,0,0,0-.33,2A10.51,10.51,0,0,0,43.41,33.66Z" />
        <path class="cls-1" d="M57.45,32.94a1.74,1.74,0,0,1-.59-1.22,1.15,1.15,0,0,1,0-.31A.82.82,0,0,1,57,31.2a1.1,1.1,0,0,1,.17-.14,19.63,19.63,0,0,0,1.79-1.29h-.42A3.24,3.24,0,0,1,56.38,29a2.9,2.9,0,0,1-.88-2.36,5.28,5.28,0,0,1,.22-1.55,4.88,4.88,0,0,1,.59-1.33,3.44,3.44,0,0,1,.75-.89,6.09,6.09,0,0,1,1.17-.69c.52-.25,1-.45,1.39-.6a3.4,3.4,0,0,1,1.06-.22,4.25,4.25,0,0,1,.71.06,3.1,3.1,0,0,1,.49.1,5.41,5.41,0,0,1,.54.23l.32.13a4,4,0,0,0,.66.07l.94,0c.19,0,.51,0,1-.05l.62,0,.12.19-.25,1.27a6.11,6.11,0,0,0-.84-.08l-.71,0-.37,0a3.93,3.93,0,0,1,.25,1.41,5.48,5.48,0,0,1-.28,1.68,5.31,5.31,0,0,1-.65,1.37,3.24,3.24,0,0,1-.89.88,10.39,10.39,0,0,1-1.43.72,7.62,7.62,0,0,0-.9.44,1.47,1.47,0,0,0-.47.42.74.74,0,0,0-.18.42,1,1,0,0,0,.19.53,8,8,0,0,0,1.31,1.14,11.72,11.72,0,0,1,2.1,1.93,2.71,2.71,0,0,1,.53,1.7A3.55,3.55,0,0,1,61.8,39a6.78,6.78,0,0,1-4,1.15,7.43,7.43,0,0,1-2.51-.39,3.23,3.23,0,0,1-1.6-1.15A2.75,2.75,0,0,1,53.17,37,3.24,3.24,0,0,1,54,34.93a6.54,6.54,0,0,1,2.77-1.74Zm.48.47-1,.53a5.75,5.75,0,0,0-.78.54,2.87,2.87,0,0,0-.55.6,2.54,2.54,0,0,0-.36.74,2.86,2.86,0,0,0-.12.82A2.34,2.34,0,0,0,55.54,38a2.72,2.72,0,0,0,1.11.88,3.93,3.93,0,0,0,1.59.32,3,3,0,0,0,2.12-.7,2.13,2.13,0,0,0,.79-1.67,1.78,1.78,0,0,0-.4-1.1A18.09,18.09,0,0,0,57.93,33.41Zm-.12-6.77a2.63,2.63,0,0,0,.46,1.76,1.5,1.5,0,0,0,1.18.52,1.58,1.58,0,0,0,1.25-.59,3.9,3.9,0,0,0,.76-1.61,7.79,7.79,0,0,0,.26-2A2.46,2.46,0,0,0,61.24,23a1.54,1.54,0,0,0-1.16-.49,1.83,1.83,0,0,0-1.68,1.27A6.65,6.65,0,0,0,57.81,26.64Z" />
        <path class="cls-1" d="M75.44,33.4q0-.54-.63-4.77l-.74-5.24-.8-5.24a3.56,3.56,0,0,0-.19-.78A.48.48,0,0,0,73,17.2a1.3,1.3,0,0,0-.21-.12A5.47,5.47,0,0,0,71.51,17l-.09-.11.09-.64.13-.11,2.62.07,3.64-.07.08.11-.08.59-.09.11a3.21,3.21,0,0,0-1.38.22.58.58,0,0,0-.22.5,21.09,21.09,0,0,0,.26,2.73l1.29,9.41,2.55-5.2c.27-.56.63-1.34,1.1-2.35s.89-2,1.28-2.89.6-1.46.64-1.62a1.54,1.54,0,0,0,.06-.33.32.32,0,0,0-.27-.31,8.47,8.47,0,0,0-1.49-.16l-.07-.11.07-.61.11-.09.62,0c.71,0,1.18,0,1.44,0l2.57-.06.09.12-.08.64-.1.1a2.53,2.53,0,0,0-.72.07.77.77,0,0,0-.39.3,14.44,14.44,0,0,0-.76,1.45L79,29.76c-1,2.09-1.6,3.3-1.7,3.64Z" />
        <path class="cls-1" d="M95.51,30.64l.24.47,0,.16A32.76,32.76,0,0,1,93,33.33a2.56,2.56,0,0,1-1.22.44.63.63,0,0,1-.55-.32,1.62,1.62,0,0,1-.2-.83,9.53,9.53,0,0,1,.17-1.47c.12-.65.37-1.82.75-3.52a18.28,18.28,0,0,1-3.28,4.82,4.1,4.1,0,0,1-2.38,1.34,1.07,1.07,0,0,1-.87-.5,3.22,3.22,0,0,1-.36-1.79,13.85,13.85,0,0,1,.3-2.65,22.68,22.68,0,0,1,.86-3.06,4.36,4.36,0,0,1,.67-1.26A13.12,13.12,0,0,1,88.56,23a9,9,0,0,1,1.82-1.25,3.16,3.16,0,0,1,1.22-.22,4.76,4.76,0,0,1,1.13.16,4.64,4.64,0,0,1,1.19.48l1-.65.36.29a19.51,19.51,0,0,0-.66,2.63l-.81,4.1a21.6,21.6,0,0,0-.42,2.66c0,.31.09.47.28.47a5,5,0,0,0,1.71-1Zm-3.06-7.23a3.69,3.69,0,0,0-1.78-.54,1.6,1.6,0,0,0-1.37.75A11.27,11.27,0,0,0,88.17,27a18.51,18.51,0,0,0-.61,3.84c0,.6.14.9.43.9s.85-.5,1.64-1.52a14.76,14.76,0,0,0,1.93-3.38A11.86,11.86,0,0,0,92.45,23.41Zm3.16-7.26A4.6,4.6,0,0,1,94.19,19a3.46,3.46,0,0,1-2.13.78,3.13,3.13,0,0,1-1.29-.26,2.56,2.56,0,0,1-1-.77,2.85,2.85,0,0,1-.55-1.18,8.33,8.33,0,0,1-.08-1.45l.14-.14h.55a2.1,2.1,0,0,0,2.39,2.08A2.68,2.68,0,0,0,95,16h.53Z" />
        <path class="cls-1" d="M97,33.66l-.29-.3a31.77,31.77,0,0,0,.87-3.15q.54-2.21.78-3.84a20.86,20.86,0,0,0,.25-2.09c0-.27-.09-.41-.25-.41a4.19,4.19,0,0,0-1.57,1h-.15l-.22-.43V24.3c.38-.36.82-.75,1.32-1.18A16.28,16.28,0,0,1,99.08,22a4.76,4.76,0,0,1,.91-.55,1.73,1.73,0,0,1,.56-.11c.39,0,.59.26.59.79a10,10,0,0,1-.19,1.65c-.13.72-.4,1.95-.82,3.68a15.09,15.09,0,0,1,3.1-4.32c1.24-1.19,2.25-1.79,3-1.79.61,0,.92.39.92,1.15a9.06,9.06,0,0,1-.25,1.8c-.17.78-.44,1.92-.8,3.43q-.37,1.5-.51,2.34a9.43,9.43,0,0,0-.14,1.09c0,.29.09.44.26.44s.82-.33,1.6-1h.13l.24.48,0,.15a21.67,21.67,0,0,1-2.66,2,3.07,3.07,0,0,1-1.39.44.59.59,0,0,1-.61-.4,2.05,2.05,0,0,1-.16-.81,21.57,21.57,0,0,1,.76-4,23.33,23.33,0,0,0,.84-4.17c0-.33-.14-.5-.42-.5a1.34,1.34,0,0,0-.54.19,4.9,4.9,0,0,0-1,.95,11.18,11.18,0,0,0-1.21,1.72,12.31,12.31,0,0,0-1,2.07,17.65,17.65,0,0,0-.68,2.39,16.79,16.79,0,0,0-.33,2A10.51,10.51,0,0,0,97,33.66Z" />
        <path class="cls-1" d="M127.36,32.09l-.07.09a13.63,13.63,0,0,0-1.75.58,16.76,16.76,0,0,1-2.7.81,11.93,11.93,0,0,1-1.89.17A6.36,6.36,0,0,1,116.22,32a6.76,6.76,0,0,1-1.71-5,13.12,13.12,0,0,1,.47-3.53,10.24,10.24,0,0,1,1.31-3A10.79,10.79,0,0,1,118.71,18a11.06,11.06,0,0,1,2.93-1.69,8.24,8.24,0,0,1,2.8-.48,10.12,10.12,0,0,1,2.54.33,5.38,5.38,0,0,1,1.94.81l.09.17-.5,2a17.37,17.37,0,0,0-.35,1.9l-.1.1h-.62l-.08-.1q.09-1.32.09-2.31a5.41,5.41,0,0,0-3.81-1.37,6.11,6.11,0,0,0-2.57.52,4.4,4.4,0,0,0-1.9,1.84A11.26,11.26,0,0,0,118,23.06a17.28,17.28,0,0,0-.45,3.86,6.75,6.75,0,0,0,1.1,4.15,3.72,3.72,0,0,0,3.15,1.44,4.68,4.68,0,0,0,2.61-.71l.42-1.87c.08-.35.15-.79.23-1.32a8.8,8.8,0,0,0,.11-1,.58.58,0,0,0-.09-.33.54.54,0,0,0-.23-.18c-.09,0-.34,0-.77-.07L122.93,27l-.08-.09.11-.66.1-.11q2.09.09,3,.09l3.35-.09.08.11-.09.66-.11.09a2.7,2.7,0,0,0-.85.12.8.8,0,0,0-.4.37,4.87,4.87,0,0,0-.31,1.24l-.21,1.06c-.12.63-.19,1-.21,1.22a3.73,3.73,0,0,0,0,.59A2.35,2.35,0,0,0,127.36,32.09Z" />
        <path class="cls-1" d="M130.48,25l-.21-.42,0-.16a28.56,28.56,0,0,1,3-2.35,3.52,3.52,0,0,1,1.67-.69.59.59,0,0,1,.47.26,1.06,1.06,0,0,1,.2.66,7.06,7.06,0,0,1-.17,1.34c-.11.54-.35,1.57-.71,3.08a35,35,0,0,0-.95,4.51.51.51,0,0,0,.09.3.27.27,0,0,0,.21.13,5.3,5.3,0,0,0,1.74-1.13H136l.24.49,0,.15c-.51.41-1.11.87-1.82,1.39a9.16,9.16,0,0,1-1.5,1,2.08,2.08,0,0,1-.79.2.69.69,0,0,1-.63-.35,1.78,1.78,0,0,1-.21-.91,6.92,6.92,0,0,1,.13-1.27c.08-.47.26-1.28.53-2.45a35.67,35.67,0,0,0,.92-4.57c0-.23-.08-.34-.25-.34A5.07,5.07,0,0,0,130.64,25Zm3.42-7.34a2,2,0,0,1,.42-1.28,1.36,1.36,0,0,1,1.09-.53,1.11,1.11,0,0,1,.89.38,1.44,1.44,0,0,1,.33,1,2.38,2.38,0,0,1-.39,1.33,1.24,1.24,0,0,1-1.1.6,1.07,1.07,0,0,1-.95-.42A1.87,1.87,0,0,1,133.9,17.66Z" />
        <path class="cls-1" d="M137.58,29.83a14.88,14.88,0,0,1,.35-2.83,7.26,7.26,0,0,1,1.17-2.84,7.09,7.09,0,0,1,2.25-2,5.68,5.68,0,0,1,2.91-.82,3.41,3.41,0,0,1,2.52,1,4,4,0,0,1,1,2.94,12.09,12.09,0,0,1-.59,3.64,5.9,5.9,0,0,1-1.6,2.72,12.75,12.75,0,0,1-2.09,1.47,5.06,5.06,0,0,1-2.48.61,3.31,3.31,0,0,1-2.07-.57,3,3,0,0,1-1-1.47A5.81,5.81,0,0,1,137.58,29.83Zm2.57-.1a3.6,3.6,0,0,0,.5,2.14,1.68,1.68,0,0,0,1.44.67,1.74,1.74,0,0,0,1.14-.4,3.56,3.56,0,0,0,.94-1.43,12.16,12.16,0,0,0,.7-2.58,17.14,17.14,0,0,0,.26-2.79,3.4,3.4,0,0,0-.55-2.22,1.73,1.73,0,0,0-1.35-.63,1.9,1.9,0,0,0-1.47.72A6.59,6.59,0,0,0,140.64,26,16.22,16.22,0,0,0,140.15,29.73Zm4-9.71a1.22,1.22,0,0,1-.4-.83,2.17,2.17,0,0,1,.69-1.27,3.12,3.12,0,0,0,.95-1.73c0-.57-.3-.85-.91-.85s-.82.33-1.06,1l0,0-.24-.05,0-.05a10.89,10.89,0,0,0,.4-1.34,2.27,2.27,0,0,1,1.33-.47,1.76,1.76,0,0,1,1.34.46,1.67,1.67,0,0,1,.43,1.18,2,2,0,0,1-.29,1,5.38,5.38,0,0,1-1.23,1.17c-.61.46-.91.82-.91,1.1a.57.57,0,0,0,.17.42v.06l-.14.13Z" />
        <path class="cls-1" d="M149.18,25l-.22-.42,0-.16a28.44,28.44,0,0,1,3-2.35,3.48,3.48,0,0,1,1.67-.69.57.57,0,0,1,.46.26,1.06,1.06,0,0,1,.2.66,7.06,7.06,0,0,1-.17,1.34c-.11.54-.35,1.57-.71,3.08a37.07,37.07,0,0,0-.95,4.51.51.51,0,0,0,.09.3.31.31,0,0,0,.22.13,5.53,5.53,0,0,0,1.74-1.13h.13l.24.49,0,.15c-.5.41-1.11.87-1.81,1.39a9.56,9.56,0,0,1-1.51,1,2,2,0,0,1-.79.2.69.69,0,0,1-.63-.35,1.78,1.78,0,0,1-.21-.91,7.92,7.92,0,0,1,.13-1.27c.08-.47.26-1.28.54-2.45a34.73,34.73,0,0,0,.91-4.57c0-.23-.08-.34-.25-.34A5.15,5.15,0,0,0,149.33,25Zm3.41-7.34a2,2,0,0,1,.43-1.28,1.33,1.33,0,0,1,1.08-.53,1.14,1.14,0,0,1,.9.38,1.49,1.49,0,0,1,.32,1,2.38,2.38,0,0,1-.39,1.33,1.24,1.24,0,0,1-1.1.6,1.07,1.07,0,0,1-1-.42A1.87,1.87,0,0,1,152.59,17.66Z" />
        <polygon class="cls-1" points="157 49.22 157 39.22 152 39.22 152 44.22 5 44.22 5 39.22 0 39.22 0 49.22 157 49.22" />
        <polygon class="cls-1" points="0 0 0 10 5 10 5 5 152 5 152 10 157 10 157 0 0 0" />
    </g>
</svg>