<svg width="157" height="38" xmlns="http://www.w3.org/2000/svg" version="1.1" xml:space="preserve">
 	<style type="text/css">
		.st0 {
			fill: #E3E333;
			animation: lta0 10s infinite;
		}

		.st1 {
			fill: #FF3424;
			animation: lta1 10s infinite;
		}

		@keyframes lta0 {
			0% {
				fill: #FFBE0B;
			}

			25% {
				fill: #FB5607;
			}

			50% {
				fill: #FF006E;
			}

			75% {
				fill: #5a189a
			}

			100% {
				fill: #09a129
			}
		}

		@keyframes lta1 {
			0% {
				fill: #FB5607;
			}

			25% {
				fill: #FF006E;
			}

			50% {
				fill: #09a129;
			}

			75% {
				fill: #FFBE0B
			}

			100% {
				fill: #5a189a
			}
		}
	</style>
 <g>
  <title>Logo</title>
  <g>
   <path class="st0" d="m14.3,15.3c0.5,-3.4 0.8,-5.4 0.8,-5.9c0,-0.1 0,-0.3 -0.1,-0.4c-0.1,-0.1 -0.2,-0.2 -0.3,-0.2c-0.2,-0.1 -0.4,-0.1 -0.7,-0.1l-1,-0.1l0.1,0l0.1,-0.7l0.1,-0.1c0.8,0.1 1.9,0.1 3.1,0.1c0.9,0 2.2,0 3.9,-0.1l0.1,0.1l-0.2,0.7l-0.1,0.1c-0.5,0 -0.9,0 -1.4,0.1c-0.1,0 -0.2,0.1 -0.3,0.2c-0.1,0.1 -0.2,0.2 -0.2,0.3c-0.2,0.7 -0.3,1.5 -0.5,2.2l-1.3,9.1c-0.2,1.5 -0.4,2.4 -0.4,2.8c0,0.2 0.1,0.4 0.2,0.5c0.2,0.1 0.5,0.2 0.7,0.2l1.1,0.1l0.1,0.1l-0.1,0.6l0,0.1c-0.8,-0.1 -2,-0.1 -3.3,-0.1s-2.5,0 -3.6,0.1l-0.1,-0.1l0.1,-0.6l0.1,-0.1l0.5,0c0.4,0 0.7,0 1.1,-0.2c0.2,-0.1 0.3,-0.3 0.3,-0.5c0.2,-0.8 0.4,-1.7 0.5,-2.5l0.7,-4.5l-6.5,0c-0.7,4 -1,6.4 -1,6.9c0,0.2 0.1,0.4 0.2,0.5c0.2,0.1 0.4,0.2 0.7,0.2l1.1,0.1l0.1,0.1l-0.1,0.6l-0.1,0.1c-0.9,-0.1 -2.1,-0.1 -3.3,-0.1s-2.5,0 -3.7,0.1l-0.1,-0.1l0,-0.6l0.1,-0.1l0.5,0c0.4,0 0.7,0 1.1,-0.2c0.2,-0.1 0.3,-0.3 0.3,-0.5c0.1,-0.3 0.3,-1.3 0.6,-3.2l1,-6.4c0.3,-1.5 0.5,-2.9 0.6,-4.4c0,-0.1 0,-0.3 -0.1,-0.4c-0.1,-0.1 -0.2,-0.2 -0.3,-0.2c-0.2,-0.1 -0.4,-0.1 -0.7,-0.1l-1,-0.1l0,-0.2l0.1,-0.7l0.2,0c0.9,0.1 1.9,0.1 3.1,0.1c0.8,0 2.1,0 3.9,-0.1l0.1,0.1l-0.1,0.7l-0.1,0.1c-0.5,0 -0.9,0 -1.4,0.1c-0.1,0 -0.2,0.1 -0.3,0.2c-0.1,0.2 -0.2,0.4 -0.3,0.6c-0.2,0.8 -0.3,1.5 -0.4,2.3l-0.5,3.4c1.4,0.1 2.5,0.1 3.2,0.1l3.1,-0.1z"/>
   <path class="st0" d="m19.9,21.5c0,-0.9 0.1,-1.9 0.4,-2.8c0.3,-2.1 1.6,-3.8 3.4,-4.8c0.9,-0.5 1.9,-0.8 2.9,-0.8c0.9,0 1.9,0.3 2.5,1c0.7,0.8 1.1,1.9 1,2.9c0,1.2 -0.2,2.4 -0.6,3.6c-0.3,1 -0.8,2 -1.6,2.7c-0.6,0.6 -1.3,1.1 -2.1,1.5c-0.8,0.4 -1.6,0.6 -2.5,0.6c-0.7,0 -1.5,-0.2 -2.1,-0.6c-0.5,-0.4 -0.8,-0.9 -1,-1.5c-0.2,-0.5 -0.3,-1.1 -0.3,-1.8zm2.5,-0.1c0,0.8 0.1,1.5 0.6,2.2c0.3,0.4 0.9,0.7 1.4,0.7c0.4,0 0.8,-0.1 1.1,-0.4c0.4,-0.4 0.7,-0.9 0.9,-1.4c0.3,-0.8 0.6,-1.7 0.7,-2.6c0.2,-0.9 0.2,-1.9 0.3,-2.8c0.1,-0.8 -0.1,-1.6 -0.5,-2.2c-0.3,-0.4 -0.8,-0.6 -1.4,-0.6c-0.6,0 -1.1,0.3 -1.5,0.7c-0.6,0.8 -1,1.8 -1.1,2.8c-0.2,1.1 -0.4,2.4 -0.5,3.6z"/>
   <path class="st0" d="m42,22.3l0.2,0.5l0,0.2c-0.9,0.7 -1.8,1.4 -2.7,2.1c-0.4,0.3 -0.8,0.4 -1.2,0.5c-0.2,0 -0.4,-0.1 -0.5,-0.3c-0.1,-0.2 -0.2,-0.5 -0.2,-0.8c0,-0.5 0.1,-1 0.2,-1.5c0.1,-0.6 0.4,-1.8 0.8,-3.5c-0.8,1.8 -1.9,3.4 -3.3,4.8c-0.6,0.7 -1.5,1.2 -2.4,1.3c-0.4,0 -0.7,-0.2 -0.9,-0.5c-0.3,-0.6 -0.4,-1.2 -0.4,-1.8c0,-0.9 0.1,-1.8 0.3,-2.7c0.2,-1 0.5,-2.1 0.9,-3.1c0.2,-0.4 0.4,-0.9 0.7,-1.2c0.5,-0.5 1,-1.1 1.6,-1.5c0.6,-0.5 1.2,-0.9 1.8,-1.3c0.4,-0.1 0.8,-0.2 1.2,-0.2c0.4,0 0.8,0.1 1.1,0.2c0.4,0.1 0.8,0.3 1.2,0.5l1,-0.6l0.4,0.3c-0.3,0.9 -0.5,1.7 -0.7,2.6l-0.8,4.1c-0.2,0.9 -0.3,1.8 -0.4,2.7c0,0.3 0.1,0.5 0.3,0.5c0.6,-0.2 1.2,-0.6 1.7,-1l0.1,0l0,-0.3zm-3.1,-7.2c-0.5,-0.3 -1.2,-0.5 -1.8,-0.5c-0.6,0 -1.1,0.3 -1.4,0.8c-0.5,1.1 -0.9,2.2 -1.1,3.3c-0.3,1.2 -0.5,2.5 -0.6,3.8c0,0.6 0.2,0.9 0.4,0.9s0.8,-0.5 1.6,-1.5c0.8,-1 1.4,-2.2 1.9,-3.4c0.6,-1.1 0.9,-2.2 1,-3.4zm2.2,-3.7l-0.6,0.3c-0.3,-0.4 -0.8,-0.9 -1.3,-1.4s-1.1,-1.1 -1.6,-1.6l-1.7,-1.6l0.1,-0.3l0.1,-0.1l2.4,0.3l0.1,0.1c0.5,0.8 1.3,2.1 2.4,4l0.1,0.3z"/>
   <path class="st0" d="m43.4,25.4l-0.3,-0.3c0.3,-1 0.6,-2.1 0.9,-3.1c0.4,-1.5 0.6,-2.8 0.8,-3.9c0.1,-0.7 0.2,-1.4 0.2,-2.1c0,-0.3 -0.1,-0.4 -0.2,-0.4c-0.6,0.2 -1.1,0.6 -1.6,1l-0.2,0l-0.2,-0.4l0,-0.2c0.4,-0.4 0.8,-0.8 1.3,-1.2c0.4,-0.4 0.9,-0.7 1.4,-1.1c0.3,-0.2 0.6,-0.4 0.9,-0.5c0.2,-0.1 0.4,-0.1 0.6,-0.1c0.4,0 0.6,0.3 0.6,0.8c0,0.6 -0.1,1.1 -0.2,1.6c-0.1,0.7 -0.4,2 -0.8,3.7c0.8,-1.6 1.8,-3.1 3.1,-4.3c1.2,-1.2 2.2,-1.8 3,-1.8c0.6,0 0.9,0.4 0.9,1.1c0,0.6 -0.1,1.2 -0.2,1.8c-0.2,0.8 -0.4,1.9 -0.8,3.4c-0.2,1 -0.4,1.8 -0.5,2.3c-0.1,0.4 -0.1,0.7 -0.1,1.1c0,0.3 0.1,0.5 0.3,0.5c0.3,0 0.8,-0.3 1.6,-1l0.1,0l0.2,0.5l0,0.2c-0.8,0.7 -1.7,1.4 -2.7,2c-0.4,0.3 -0.9,0.4 -1.4,0.4c-0.3,0 -0.5,-0.1 -0.6,-0.4c-0.1,-0.3 -0.2,-0.5 -0.2,-0.8c0.1,-1.4 0.4,-2.7 0.8,-4c0.4,-1.4 0.7,-2.8 0.8,-4.2c0,-0.3 -0.1,-0.5 -0.4,-0.5c-0.2,0 -0.4,0.1 -0.5,0.2c-0.4,0.3 -0.7,0.6 -1,1c-0.5,0.5 -0.9,1.1 -1.2,1.7c-0.4,0.7 -0.7,1.4 -1,2.1c-0.3,0.8 -0.5,1.6 -0.7,2.4c-0.1,0.7 -0.3,1.3 -0.3,2c-0.9,0.1 -1.7,0.2 -2.4,0.5z"/>
   <path class="st0" d="m57.5,24.6c-0.4,-0.3 -0.6,-0.7 -0.6,-1.2c0,-0.1 0,-0.2 0,-0.3c0,-0.1 0,-0.1 0.1,-0.2c0,-0.1 0.1,-0.1 0.2,-0.1c0.6,-0.4 1.2,-0.8 1.8,-1.3l-0.4,0c-0.8,0 -1.5,-0.2 -2.1,-0.7c-0.6,-0.6 -1,-1.5 -0.9,-2.4c0,-0.5 0.1,-1.1 0.2,-1.6c0.1,-0.5 0.3,-0.9 0.6,-1.3c0.2,-0.3 0.4,-0.6 0.8,-0.9c0.4,-0.3 0.8,-0.5 1.2,-0.7c0.5,-0.2 0.9,-0.4 1.4,-0.6c0.3,-0.1 0.7,-0.2 1.1,-0.2c0.2,0 0.5,0 0.7,0c0.2,0 0.3,0.1 0.5,0.1c0.2,0.1 0.4,0.1 0.5,0.2l0.3,0.1c0.2,0 0.4,0.1 0.7,0.1l0.9,0l1,0l0.6,0l0.1,0.2l-0.2,1.3c-0.3,-0.1 -0.6,-0.1 -0.8,-0.1l-0.7,0c-0.1,0 -0.2,0 -0.4,0c0.2,0.4 0.3,0.9 0.2,1.4c0,0.6 -0.1,1.1 -0.3,1.7c-0.2,0.5 -0.4,0.9 -0.7,1.4c-0.2,0.3 -0.5,0.6 -0.9,0.9c-0.5,0.3 -0.9,0.5 -1.4,0.7c-0.4,0.2 -0.7,0.3 -0.9,0.4c-0.2,0.1 -0.3,0.3 -0.5,0.4c-0.1,0.1 -0.2,0.3 -0.2,0.4c0,0.2 0.1,0.4 0.2,0.5c0.4,0.4 0.8,0.8 1.3,1.1c0.8,0.6 1.5,1.2 2.1,1.9c0.4,0.5 0.6,1.1 0.5,1.7c0,1.2 -0.6,2.4 -1.7,3c-1.2,0.8 -2.6,1.2 -4,1.2c-0.9,0 -1.7,-0.1 -2.5,-0.4c-0.6,-0.2 -1.2,-0.6 -1.6,-1.1c-0.3,-0.5 -0.5,-1 -0.5,-1.6c0,-0.8 0.3,-1.5 0.8,-2c0.8,-0.8 1.7,-1.4 2.8,-1.7l0.7,-0.3zm0.4,0.5l-0.9,0.5c-0.3,0.2 -0.5,0.3 -0.8,0.5c-0.2,0.2 -0.4,0.4 -0.5,0.6c-0.2,0.2 -0.3,0.5 -0.4,0.7c-0.1,0.3 -0.1,0.5 -0.1,0.8c0,0.5 0.1,1 0.4,1.4c0.3,0.4 0.7,0.7 1.1,0.9c0.5,0.2 1,0.3 1.6,0.3c0.8,0 1.5,-0.2 2.1,-0.7c0.5,-0.4 0.8,-1 0.8,-1.7c0,-0.4 -0.1,-0.8 -0.4,-1.1c-0.9,-0.8 -1.8,-1.5 -2.9,-2.2l0,0zm-0.1,-6.8c-0.1,0.6 0.1,1.2 0.5,1.8c0.3,0.3 0.7,0.5 1.2,0.5c0.5,0 0.9,-0.2 1.2,-0.6c0.4,-0.5 0.6,-1 0.8,-1.6c0.2,-0.7 0.3,-1.3 0.3,-2c0.1,-0.6 -0.1,-1.2 -0.5,-1.7c-0.3,-0.3 -0.7,-0.5 -1.2,-0.5c-0.8,0 -1.4,0.5 -1.7,1.3c-0.4,0.9 -0.6,1.8 -0.6,2.8l0,0z"/>
   <path class="st0" d="m127.4,23.8l0,0c-0.7,0.2 -1.2,0.4 -1.8,0.7c-0.9,0.4 -1.8,0.6 -2.7,0.8c-0.6,0.1 -1.3,0.2 -1.9,0.2c-1.7,0.1 -3.5,-0.5 -4.7,-1.7c-1.2,-1.4 -1.8,-3.2 -1.7,-5c0,-1.2 0.2,-2.4 0.5,-3.5c0.3,-1.1 0.7,-2.1 1.3,-3c0.7,-0.9 1.5,-1.8 2.4,-2.5c0.9,-0.7 1.9,-1.3 2.9,-1.7c0.9,-0.3 1.8,-0.5 2.8,-0.5c0.9,0 1.7,0.1 2.5,0.3c0.7,0.1 1.3,0.4 1.9,0.8l0.1,0.2l-0.5,2c-0.2,0.6 -0.3,1.3 -0.4,1.9l-0.1,0.1l-0.6,0l-0.1,-0.1c0.1,-0.9 0.1,-1.6 0.1,-2.3c-1,-0.9 -2.4,-1.4 -3.8,-1.4c-0.9,0 -1.8,0.2 -2.6,0.5c-0.8,0.4 -1.5,1 -1.9,1.8c-0.6,1 -1,2.1 -1.2,3.3c-0.3,1.3 -0.4,2.6 -0.4,3.9c-0.1,1.5 0.3,2.9 1.1,4.2c0.7,1 1.9,1.5 3.2,1.4c0.9,0 1.8,-0.2 2.6,-0.7l0.4,-1.9c0.1,-0.3 0.2,-0.8 0.2,-1.3c0.1,-0.3 0.1,-0.7 0.1,-1c0,-0.1 0,-0.2 -0.1,-0.3c-0.1,-0.1 -0.1,-0.1 -0.2,-0.2c-0.3,0 -0.5,-0.1 -0.8,-0.1c-0.4,0 -0.8,0 -1.1,0l-0.1,-0.1l0.1,-0.6l0.1,-0.1c1.4,0.1 2.4,0.1 3,0.1l3.4,-0.1l0.1,0.1l-0.1,0.6l-0.1,0.1c-0.3,0 -0.6,0 -0.9,0.1c-0.2,0.1 -0.3,0.2 -0.4,0.4c-0.2,0.4 -0.3,0.8 -0.3,1.2l-0.2,1c-0.1,0.6 -0.2,1 -0.2,1.2c0,0.2 0,0.4 0,0.6c0,0.2 0,0.4 0.1,0.6z"/>
   <path class="st0" d="m130.5,16.7l-0.2,-0.4l0,-0.2c0.9,-0.8 2,-1.6 3,-2.3c0.5,-0.4 1.1,-0.6 1.7,-0.7c0.2,0 0.4,0.1 0.5,0.3c0.1,0.2 0.2,0.4 0.2,0.7c0,0.5 -0.1,0.9 -0.2,1.3c-0.1,0.5 -0.4,1.6 -0.7,3.1c-0.4,1.5 -0.7,3 -0.9,4.5c0,0.1 0,0.2 0.1,0.3c0,0.1 0.1,0.1 0.2,0.1c0.6,-0.3 1.2,-0.6 1.7,-1.1l0.2,0l0.2,0.5l0,0.2c-0.5,0.4 -1.1,0.9 -1.8,1.4c-0.5,0.4 -1,0.7 -1.5,1c-0.2,0.1 -0.5,0.2 -0.8,0.2c-0.3,0 -0.5,-0.1 -0.6,-0.3c-0.2,-0.3 -0.2,-0.6 -0.2,-0.9c0,-0.4 0,-0.8 0.1,-1.3c0.1,-0.5 0.3,-1.3 0.5,-2.5c0.4,-1.5 0.7,-3 0.9,-4.6c0,-0.2 -0.1,-0.3 -0.2,-0.3c-0.7,0.2 -1.4,0.6 -1.9,1.2l-0.3,-0.2zm3.4,-7.3c0,-0.5 0.1,-0.9 0.4,-1.3c0.3,-0.3 0.7,-0.5 1.1,-0.5c0.3,0 0.7,0.1 0.9,0.4c0.2,0.3 0.4,0.6 0.3,1c0,0.5 -0.1,0.9 -0.4,1.3c-0.2,0.4 -0.7,0.6 -1.1,0.6c-0.4,0 -0.7,-0.1 -0.9,-0.4c-0.2,-0.4 -0.3,-0.8 -0.3,-1.1z"/>
   <path class="st0" d="m137.6,21.5c0,-0.9 0.1,-1.9 0.4,-2.8c0.3,-2.1 1.6,-3.8 3.4,-4.8c0.9,-0.5 1.9,-0.8 2.9,-0.8c0.9,0 1.9,0.3 2.5,1c0.7,0.8 1.1,1.9 1,2.9c0,1.2 -0.2,2.5 -0.6,3.6c-0.3,1 -0.8,2 -1.6,2.7c-0.6,0.6 -1.3,1.1 -2.1,1.5c-0.8,0.4 -1.6,0.6 -2.5,0.6c-0.7,0 -1.5,-0.2 -2.1,-0.6c-0.5,-0.4 -0.8,-0.9 -1,-1.5c-0.2,-0.5 -0.3,-1.1 -0.3,-1.8zm2.6,-0.1c-0.1,0.7 0.1,1.5 0.5,2.1c0.3,0.4 0.9,0.7 1.4,0.7c0.4,0 0.8,-0.1 1.1,-0.4c0.4,-0.4 0.7,-0.9 0.9,-1.4c0.3,-0.8 0.6,-1.7 0.7,-2.6c0.2,-0.9 0.2,-1.9 0.3,-2.8c0.1,-0.8 -0.1,-1.6 -0.6,-2.2c-0.3,-0.4 -0.8,-0.6 -1.4,-0.6c-0.6,0 -1.1,0.3 -1.5,0.7c-0.6,0.8 -1,1.8 -1.1,2.8c-0.2,1.2 -0.3,2.5 -0.3,3.7l0,0zm4,-9.7c-0.2,-0.2 -0.4,-0.5 -0.4,-0.8c0.1,-0.5 0.3,-0.9 0.7,-1.3c0.5,-0.5 0.8,-1.1 0.9,-1.7c0,-0.6 -0.3,-0.8 -0.9,-0.8s-0.8,0.3 -1.1,1l0,0l-0.2,0l0,0c0.2,-0.4 0.3,-0.9 0.4,-1.4c0.4,-0.3 0.8,-0.5 1.3,-0.5c0.5,0 1,0.1 1.3,0.5c0.3,0.3 0.4,0.7 0.4,1.2c0,0.4 -0.1,0.7 -0.3,1c-0.3,0.5 -0.8,0.8 -1.2,1.2c-0.6,0.5 -0.9,0.8 -0.9,1.1c0,0.2 0.1,0.3 0.2,0.4l0,0l-0.1,0.1l-0.1,0z"/>
   <path class="st0" d="m149.2,16.7l-0.2,-0.4l0,-0.2c0.9,-0.8 2,-1.6 3,-2.3c0.5,-0.4 1.1,-0.6 1.7,-0.7c0.2,0 0.4,0.1 0.5,0.3c0.1,0.2 0.2,0.4 0.2,0.7c0,0.5 -0.1,0.9 -0.2,1.3c-0.1,0.5 -0.4,1.6 -0.7,3.1c-0.4,1.5 -0.7,3 -0.9,4.5c0,0.1 0,0.2 0.1,0.3c0,0.1 0.1,0.1 0.2,0.1c0.6,-0.3 1.2,-0.6 1.7,-1.1l0.1,0l0.2,0.5l0,0.2c-0.5,0.4 -1.1,0.9 -1.8,1.4c-0.5,0.4 -1,0.7 -1.5,1c-0.2,0.1 -0.5,0.2 -0.8,0.2c-0.3,0 -0.5,-0.1 -0.6,-0.3c-0.2,-0.3 -0.2,-0.6 -0.2,-0.9c0,-0.4 0.1,-0.8 0.1,-1.3c0.1,-0.5 0.3,-1.3 0.5,-2.5c0.4,-1.5 0.7,-3 0.9,-4.6c0,-0.2 -0.1,-0.3 -0.2,-0.3c-0.7,0.2 -1.4,0.6 -1.9,1.2l-0.2,-0.2zm3.4,-7.3c0,-0.5 0.1,-0.9 0.4,-1.3c0.3,-0.3 0.7,-0.5 1.1,-0.5c0.3,0 0.7,0.1 0.9,0.4c0.2,0.3 0.3,0.6 0.3,1c0,0.5 -0.1,0.9 -0.4,1.3c-0.2,0.4 -0.7,0.6 -1.1,0.6c-0.4,0.1 -0.8,-0.1 -1,-0.4c-0.2,-0.4 -0.2,-0.8 -0.2,-1.1z"/>
   <rect x="0" y="28.4" class="st1" width="49.4" height="3.4"/>
   <g>
    <path class="st0" d="m75.4,25.1c0,-0.4 -0.2,-2 -0.6,-4.8l-0.7,-5.2l-0.8,-5.2c0,-0.3 -0.1,-0.5 -0.2,-0.8c0,-0.1 0,-0.1 -0.1,-0.2c-0.1,-0.1 -0.1,-0.1 -0.2,-0.1c-0.4,-0.1 -0.8,-0.1 -1.2,-0.1l-0.2,-0.1l0.1,-0.6l0.1,-0.1l2.6,0.1l3.6,-0.1l0.1,0.1l0,0.6l-0.1,0.1c-0.5,0 -0.9,0.1 -1.4,0.2c-0.2,0.1 -0.2,0.3 -0.2,0.5c0,0.9 0.1,1.8 0.3,2.7l1.3,9.4l2.6,-5.2c0.3,-0.6 0.6,-1.3 1.1,-2.4s0.9,-2 1.3,-2.9s0.6,-1.5 0.6,-1.6c0,-0.1 0.1,-0.2 0.1,-0.3c0,-0.2 -0.1,-0.3 -0.3,-0.3c-0.5,-0.1 -1,-0.2 -1.5,-0.2l-0.1,-0.1l0.1,-0.6l0.1,-0.1l0.6,0l1.4,0l2.6,-0.1l0.1,0.1l-0.1,0.6l-0.1,0.2c-0.2,0 -0.5,0 -0.7,0.1c-0.2,0.1 -0.3,0.2 -0.4,0.3c-0.3,0.5 -0.5,1 -0.8,1.5l-5.4,11c-1,2.1 -1.6,3.3 -1.7,3.6l-1.9,0z"/>
    <path class="st0" d="m95.5,22.3l0.2,0.5l0,0.2c-0.9,0.7 -1.8,1.4 -2.8,2.1c-0.4,0.3 -0.8,0.4 -1.2,0.5c-0.2,0 -0.4,-0.1 -0.6,-0.3c0,-0.4 -0.1,-0.7 -0.1,-1c0,-0.5 0.1,-1 0.2,-1.5c0.1,-0.6 0.4,-1.8 0.8,-3.5c-0.8,1.8 -1.9,3.4 -3.3,4.8c-0.6,0.7 -1.5,1.2 -2.4,1.3c-0.4,0 -0.7,-0.2 -0.9,-0.5c-0.3,-0.6 -0.4,-1.2 -0.4,-1.8c0,-0.9 0.1,-1.8 0.3,-2.7c0.2,-1 0.5,-2.1 0.9,-3.1c0.2,-0.4 0.4,-0.9 0.7,-1.2c0.5,-0.6 1.1,-1.1 1.7,-1.5c0.6,-0.5 1.2,-0.9 1.8,-1.3c0.4,-0.1 0.8,-0.2 1.2,-0.2c0.4,0 0.8,0.1 1.1,0.2c0.4,0.1 0.8,0.3 1.2,0.5l1,-0.6l0.4,0.3c-0.3,0.9 -0.5,1.7 -0.7,2.6l-0.8,4.1c-0.2,0.9 -0.3,1.8 -0.4,2.7c0,0.3 0.1,0.5 0.3,0.5c0.6,-0.2 1.2,-0.6 1.7,-1l0.1,-0.1zm-3,-7.2c-0.5,-0.3 -1.2,-0.5 -1.8,-0.5c-0.6,0 -1.1,0.3 -1.4,0.8c-0.5,1.1 -0.9,2.2 -1.1,3.3c-0.3,1.3 -0.5,2.5 -0.6,3.8c0,0.6 0.1,0.9 0.4,0.9s0.8,-0.5 1.6,-1.5c0.8,-1 1.4,-2.2 1.9,-3.4c0.5,-1.1 0.8,-2.2 1,-3.4zm3.1,-7.3c-0.1,1.1 -0.6,2.1 -1.4,2.9c-0.6,0.5 -1.4,0.8 -2.1,0.8c-0.4,0 -0.9,-0.1 -1.3,-0.3c-0.4,-0.2 -0.7,-0.4 -1,-0.8c-0.3,-0.3 -0.5,-0.7 -0.6,-1.2c-0.1,-0.5 -0.1,-1 -0.1,-1.5l0.1,-0.1l0.6,0c0,1.2 0.9,2.1 2.1,2.1c0.1,0 0.2,0 0.3,0c1.3,0.1 2.5,-0.8 2.8,-2.1l0.5,0l0.1,0.2z"/>
    <path class="st0" d="m97,25.4l-0.3,-0.3c0.3,-1 0.6,-2.1 0.9,-3.2c0.4,-1.5 0.6,-2.8 0.8,-3.9c0.1,-0.7 0.2,-1.4 0.2,-2.1c0,-0.3 -0.1,-0.4 -0.2,-0.4c-0.6,0.2 -1.1,0.6 -1.6,1l-0.2,0l-0.2,-0.4l0,-0.2c0.4,-0.4 0.8,-0.8 1.3,-1.2c0.4,-0.4 0.9,-0.7 1.4,-1.1c0.3,-0.2 0.6,-0.4 0.9,-0.5c0.2,-0.1 0.4,-0.1 0.6,-0.1c0.4,0 0.6,0.3 0.6,0.8c0,0.6 -0.1,1.1 -0.2,1.6c-0.1,0.7 -0.4,2 -0.8,3.7c0.8,-1.6 1.8,-3.1 3.1,-4.3c1.2,-1.2 2.2,-1.8 3,-1.8c0.6,0 0.9,0.4 0.9,1.1c0,0.6 -0.1,1.2 -0.2,1.8c-0.2,0.8 -0.4,1.9 -0.8,3.4c-0.2,1 -0.4,1.8 -0.5,2.3c-0.1,0.4 -0.1,0.7 -0.1,1.1c0,0.3 0.1,0.5 0.3,0.5s0.8,-0.3 1.6,-1l0.1,0l0.2,0.5l0,0.2c-0.8,0.7 -1.7,1.4 -2.7,2c-0.4,0.3 -0.9,0.4 -1.4,0.4c-0.3,0 -0.5,-0.1 -0.6,-0.4c-0.1,-0.3 -0.2,-0.5 -0.2,-0.8c0.1,-1.4 0.4,-2.7 0.8,-4c0.4,-1.4 0.7,-2.8 0.8,-4.2c0,-0.3 -0.1,-0.5 -0.4,-0.5c-0.2,0 -0.4,0.1 -0.5,0.2c-0.4,0.3 -0.7,0.6 -1,1c-0.5,0.5 -0.9,1.1 -1.2,1.7c-0.4,0.7 -0.7,1.4 -1,2.1c-0.3,0.8 -0.5,1.6 -0.7,2.4c-0.1,0.7 -0.3,1.3 -0.3,2c-0.9,0.2 -1.7,0.3 -2.4,0.6z"/>
    <rect x="66.9" y="28.4" class="st1" width="90.1" height="3.4"/>
   </g>
  </g>
 </g>

</svg>